<svg version="1" xmlns="http://www.w3.org/2000/svg" width="480" height="480" viewBox="0 0 360.000000 360.000000"><path d="M79.2 47c-7.5 3.4-7.2-.2-7.2 80.4 0 44-.4 72.5-1 74l-1 2.6H32v6.3c0 5.3.4 6.7 2.3 8.5 2.3 2.2 2.8 2.2 34.9 2.2 32.2 0 32.5 0 35.9-2.3 1.8-1.2 3.9-3.4 4.6-4.7 1-1.9 1.3-20.1 1.3-80.5 0-74-.1-78.2-1.8-81.5-2.8-5.2-7.1-6.9-17.2-6.9-6.3 0-9.6.4-12.8 1.9zM150 89.3c-7.1 3.3-7 2-7 65.4 0 55.7 0 56.6 2.1 60.3 1.5 2.7 3.2 4.1 5.9 4.9 4.8 1.4 23.1 1.4 26.7 0 5.6-2.3 7.8-3.4 9.5-4.9 2.5-2.3 9.4-13.2 14.5-23 2.5-4.7 4.9-8.9 5.4-9.5.5-.5.9-1.7.9-2.7 0-.9.6-2.1 1.3-2.5 1.4-.9 4-6 8.2-16.8 1.6-3.9 3.3-7.3 3.9-7.7 1.9-1.3 3.6-.9 3.6 1 0 1 .4 2.2.9 2.7.4.6 1.7 3.2 2.7 6 1 2.7 3.1 7.4 4.6 10.4 1.5 2.9 2.8 5.7 2.8 6.2s2 4.3 4.5 8.5c2.5 4.1 4.5 8 4.5 8.6 0 .6 2 3.9 4.5 7.5 2.5 3.5 4.5 6.8 4.5 7.3 0 1.9 8.1 7.6 12.4 8.8 2.6.6 9.5 1.2 15.5 1.2 9.6 0 11.2-.3 14.2-2.3 1.8-1.2 3.9-3.4 4.6-4.7 1-1.9 1.3-16.1 1.3-60.4V95.7l-4-3.9-4.1-3.8h-9.6c-12.6 0-16.5 1.2-19.2 6-2 3.6-2.1 5-2.1 39.6 0 19.8-.3 36.9-.6 38.2-1.2 4.3-2.2 2.8-10.8-14.7-2-4.1-3.6-8-3.6-8.8 0-.7-.4-2.1-.9-3.1-2-3.8-4.1-9.2-6.7-17-1.4-4.5-3.6-9.7-4.8-11.5-2.2-3.2-2.2-3.2-11.5-3.5-13.3-.4-13.9 0-18.6 12.2-4.2 11-7.1 18.1-8.6 20.8-.5 1-.9 2.2-.9 2.7 0 1.3-9.4 20.7-11 22.6-.7.8-1.6 1.5-2.1 1.5s-.9-16.8-.9-37.8c0-41.2 0-40.9-5.9-44.9-3-2-4.6-2.3-13.5-2.2-5.6 0-11.2.6-12.6 1.2zM47 276.6v23.6l12.3-.4c10-.3 13-.8 16.7-2.6 4.7-2.2 8-6.4 8-10.2 0-3.5-2.8-7.9-6.2-9.6-3.1-1.6-3.2-1.7-1.2-3.3 2.2-1.9 4.4-6.3 4.4-9.1 0-3.5-2.1-6.5-6.4-9.3-4.1-2.5-5-2.7-16-2.7H47v23.6zM66.5 260c10.3 2.4 7.8 12-3.5 13.3-3.3.4-5.9.2-6.7-.4-1.3-1.2-1.9-12-.6-13.2.9-1 6.1-.8 10.8.3zm5.9 21.1c3.3 2.6 3.6 7.7.5 10.4-1.6 1.5-3.7 1.9-9.7 2h-7.7l-.3-5.9c-.4-8.5-.3-8.6 7.6-8.6 5.5 0 7.5.4 9.6 2.1zM122.2 276.2l.3 23.3h28V297c0-2.5-.1-2.5-9.5-2.8-6-.2-9.7-.7-10.2-1.5-.4-.7-.8-9.9-.8-20.5V253h-8l.2 23.2zM200.5 255.9c-7.6 4.3-10.8 9.6-11.3 18.3-.7 11.5 2.7 18.6 10.8 22.8 9 4.6 22.2 2.8 28.9-3.9 7.9-7.9 8-25.1.3-32.4-8.7-8.2-19.5-10-28.7-4.8zm20.9 7.5c5.3 4 6.9 12.5 4 20.6-2.3 6.5-7 9.5-14.6 9.5-6.5-.1-9.9-2.4-12.4-8.4-1.9-4.5-1.8-13.5.2-17.7 4-8.4 14.6-10.3 22.8-4zM284.3 255.8c-10.1 5.3-13.3 10.3-13.3 20.9.1 12.6 5.1 18.9 17.4 22 5.6 1.4 7.8 1.4 12.9.5 3.4-.7 7.3-2 8.7-3 2.3-1.8 2.5-2.6 2.8-11.6l.3-9.6h-9.6c-9.4 0-9.6.1-9.3 2.2.3 2 1 2.3 5.1 2.6l4.7.3v6c0 5.6-.2 6-2.7 7-3.7 1.4-12.2.4-15.3-1.9-4.9-3.6-7-8-7-14.4 0-3.7.6-7 1.6-8.6 4-6.6 11.9-9.8 19.4-7.9 1.9.4 4.5 1.1 5.8 1.4 3 .7 5.7-1.4 4-3.4-4.7-5.7-16.9-6.9-25.5-2.5z"/></svg>