<svg version="1" xmlns="http://www.w3.org/2000/svg" width="678.667" height="678.667" viewBox="0 0 509.000000 509.000000"><path d="M361.2 5.7c-.7 3.2-1.4 7.6-1.7 9.8-.4 2.2-.8 4.7-1 5.5-.3.8-.7 3.3-1 5.5-.3 2.2-.8 5.1-1.1 6.5-.2 1.4-.7 3.8-.9 5.5-.3 1.6-.8 4.1-1 5.5-.8 4.3-1.8 10.5-1.8 11.7 0 .7-1.2 1.3-2.6 1.4-7.7.3-55.4 1.2-126.6 2.5-17 .3-38.3.7-47.3.9-11.7.2-16.4 0-16.7-.9-.1-.6-.8-4.3-1.4-8.1-.7-3.9-1.6-9-2.1-11.5s-1.1-5.9-1.4-7.5c-.2-1.7-.7-4.3-1.1-5.9-.4-1.6-.9-3.8-1-5-.1-1.1-.3-2.4-.4-2.7-.1-.6-19.9 2.6-42.1 6.7-4.7.8-9.6 1.6-10.9 1.7-2.4.2-2.5 1.3-.5 11.2.3 1.6 1.4 7.6 2.3 13.2l1.8 10.3-5.6.1c-3.1 0-12.8.2-21.6.4-8.8.3-25.7.6-37.6.7l-21.6.3.3 17c.1 9.3.3 22.2.3 28.6l.1 11.6 25.3-.4c13.8-.3 35.5-.6 48.1-.6 22.3-.2 22.9-.1 23.1 1.8.1 1.1.9 5.8 1.9 10.5.9 4.7 1.8 9.4 2 10.5.2 1.1.7 4 1.1 6.5.8 4.7 1.5 8.5 2 11 .2.8.4 2.1.4 2.9.1 1.4 4.3 1.2 15.1-.9 6.3-1.2 26.5-4.9 29.5-5.4 1.1-.2 4.2-.7 6.8-1.1 4.3-.7 4.8-1 4.4-2.9-.3-1.1-1.7-8.4-3.1-16.1-1.5-7.7-2.9-15-3.1-16.3-.3-1.2-.2-2.2.2-2.3 2.4-.2 48.1-1.2 114.3-2.5 16.2-.3 35.9-.7 43.7-.8 14.1-.3 14.3-.3 13.8 1.8-.3 1.1-1 5.2-1.6 9.1-.6 3.8-1.3 8.3-1.6 10-2.4 14.5-3 19.1-2.4 19.7.3.4 2.9 1 5.6 1.4 2.8.3 5.9.8 7 1 3.1.6 5.7 1.1 23.5 3.9 9.1 1.4 17.1 2.8 17.8 3.1.7.2 1.1 0 .9-.4-.3-.4.3-5 1.3-10.2 1-5.2 2-10.9 2.3-12.5.3-1.7 1.5-8.7 2.7-15.8l2.3-12.7 4.6-.1c8-.2 25.8-.7 52.1-1.4 14-.4 27.8-.8 30.6-.8l5.1-.1-.3-20c-.1-11.1-.3-23.8-.3-28.3l-.1-8.2-14.7.4c-8.2.2-26.7.7-41.1 1l-26.4.5.6-2.7c.3-1.6.8-4.4 1.1-6.3.3-1.9 1-6 1.5-9s1.2-7.2 1.6-9.4c.3-2.1.7-4.6.9-5.5.1-.9.6-3.6 1-6.1.3-2.5.8-5.2 1.1-6.1.2-.9-.1-1.6-.8-1.6-2.7-.1-11-1.3-11.6-1.7-.4-.2-2.9-.7-5.7-1-2.7-.4-5.7-.9-6.5-1.1-.8-.2-3.3-.6-5.5-1-7.2-1-22-3.6-23.6-4.1-1.3-.3-1.9.8-2.7 5.3zM418.7 175.7c-.2.1-21.1 1-43.7 1.8-6.9.3-18.3.7-25.5 1-7.1.3-18.2.8-24.5 1-32.3 1.2-41.4 1.6-51 2-24.8 1-42.8 1.8-75.5 3-8.8.4-20 .8-25 1-4.9.2-17.1.7-27 1-9.9.4-21.1.8-25 1-3.8.2-14.9.6-24.5 1-22.1.8-31.2 1.3-31.4 1.7-.2.2-4.9 6-10.7 12.9-5.7 6.9-11.6 14.1-13.1 15.9-2.4 2.9-2.7 4-2.2 7.9.2 2.5.7 5.3.9 6.1.2.8.6 3.3.9 5.5.7 4.9 8.5 60.9 9.2 65 .2 1.6 1.3 8.8 2.4 16 2.6 17.3 2.9 16.1-2.7 16.3-2.7.2-6.4.4-8.3.6-1.9.2-4.1.4-4.8.5-1 .1-1.2 1.8-.7 7.3 1.1 14.3 1.5 20.4 2.1 30.8.5 9 .8 13.4 1.3 17.3.1.5 5.2.6 11.5.4 13-.7 12-1.5 13.2 9.7.3 3.3.8 6.9 1 8 .2 1.2.7 4.1 1 6.6.3 2.5.7 5.6.9 7 .5 3 .8 4.8 4 26.9 1.4 9.5 2.7 18.7 2.9 20.5 1.5 11.5 1.9 13 4.9 15.5 1.7 1.4 8.1 6.6 14.1 11.5 6.1 5 11.3 9.2 11.6 9.6.3.3 3.4.5 7 .4 3.6-.1 20.5-.5 37.5-.8 48.8-1.1 63.2-1.4 91-2.1 26-.6 40.2-.9 91.5-2 15.1-.4 34.3-.8 42.5-1 8.3-.2 19.5-.4 25.1-.4 8.1-.1 10.4-.4 12-1.8 1-1 5.5-5 9.9-8.8 16.5-14.5 15.5-12.9 17-24.5.3-2.5.8-5.6 1-7 .3-1.4.7-5.1 1-8.3.4-3.2.8-6.8 1.1-8 .2-1.2 1.3-9.2 2.5-17.7 1.1-8.5 2.2-16.6 2.4-18 .2-1.4 1.6-11.3 3-22 1.5-10.7 2.9-21.1 3.1-23 .3-3 1.4-10.9 2.9-21 .2-1.4.9-6.3 1.5-11s1.3-9.6 1.5-11c.2-1.4.6-4.3.9-6.5.3-2.2.8-5.7 1.1-7.8.3-2.1.8-5.9 1-8.5.3-2.6 1-7.4 1.5-10.7.5-3.3 1.2-8.3 1.5-11 .3-2.8.8-6.1 1.1-7.5.2-1.4 1.3-9 2.4-17 1-8 2.1-16.1 2.4-18 .3-1.9 1.2-8.6 2.1-14.9l1.5-11.4-2.7-3.1c-1.6-1.7-3.5-3.8-4.3-4.7-8-8.5-19.7-21.4-20.3-22.6-.7-1.2-3.3-1.4-14.4-1.1-7.4.2-13.5.4-13.6.5zm-5.2 57.5c.3.3-.1 5-.9 10.4-.9 5.4-1.7 11.7-2 13.9-.8 6.4-1.3 9.6-5.1 37-1.9 14.3-3.8 27.7-4 29.7-.3 2.1-.7 5.6-1 7.9-.3 2.3-.7 5.3-.9 6.8-.3 1.4-.7 4.6-1.1 7.1-.3 2.5-1 7.6-1.6 11.5-.5 3.8-1.1 8.3-1.3 10-.7 5.1-2.7 19.9-3.1 22.5-.2 1.4-.7 5-1.1 8-.4 3-.8 6.6-1 8-.2 1.4-.6 4.5-.9 7-.3 2.5-.7 5.2-1 6-.2.8-.7 4.2-1.1 7.4-.3 3.3-.7 6.7-.9 7.6-.2.8-.6 4.1-1 7.1l-.7 5.5-6.6.1c-9.6.1-67.2 1.4-77 1.6-6.6.2-8.3 0-8.7-1.3-.2-.8-.7-10.1-1-20.5-.3-10.5-.8-25.4-1-33.2-.4-11.1-.2-14.3.7-14.4 5.5-.5 8.8-.7 19.3-1.3 6.6-.3 15.8-.9 20.5-1.2 4.7-.4 11-.7 14-.8l5.5-.2-.1-6.5c-.1-7-1.9-45.4-2.3-50-.1-.4-2.5-.5-5.3-.3-5 .3-10.3.6-34.3 1.9-5.5.3-12.5.7-15.5 1l-5.6.4-.1-4.2c0-2.3-.3-11.6-.7-20.7-.3-9.1-.8-24.8-1.2-35-.3-10.2-.7-19.7-.9-21.3-.1-1.5 0-2.7.4-2.8 3.4-.3 15.4-.9 28.1-1.3 14.3-.5 22.3-.9 51-2.1 5.8-.3 18.4-.7 28-1.1 9.6-.3 17.6-.7 17.8-.9.5-.4 3.1 0 3.7.7zM228 240.9c.1.3.3 6.7.5 14.1.4 14.7 1.2 35.7 2.1 57.1l.5 13.7-2.3-.1c-2 0-16.4.8-31.8 1.8-3 .2-10.4.6-16.5 1-6 .3-14.6.8-19 1.1-10.6.6-44.8 2.6-47.5 2.6-2 .1-2.6-.5-2.8-3-.1-1.5-.9-7.4-1.7-13.2-.9-5.8-1.7-11.9-1.9-13.5-.7-4.7-2.6-18.6-3.2-22.5-2.2-14.9-4.3-33.4-3.9-34 .3-.4 4.6-.9 9.7-1 5.1-.1 12-.4 15.3-.5 19.7-.9 44.6-1.9 74-3 9.9-.4 18.1-.8 18.2-.9.5-.4 10.3-.2 10.3.3zm5.6 146.6c.3 8.6 1.4 37.5 2 50l.5 12-7.8.1c-4.3.1-26 .5-48.3.9-22.3.4-42.8.8-45.6.9l-5.1.2-1.2-6.5c-.6-3.7-1.3-8.4-1.6-10.6-.5-4.5-1.6-12.1-2.1-14.8-.2-1-1-7-1.9-13.5-.8-6.4-1.7-13.1-2-14.8-.5-2.8-.3-3 2.2-3.1 1.6 0 7.3-.3 12.8-.7 9.6-.6 13.2-.9 36-2.1 5.5-.3 12.3-.8 15.2-1 2.8-.2 11.2-.7 18.5-1 7.3-.4 13.4-.8 13.5-.9.2-.1 3.5-.2 7.5-.2l7.3.1.1 5z"/></svg>